HIERARCHY
ROOT hip
{
	OFFSET 0.000000 0.000000 0.000000 
	CHANNELS 6 Xposition Yposition Zposition Xrotation Zrotation Yrotation
	JOINT abdomen
	{
		OFFSET 0.000000 3.402643 0.000000 
		CHANNELS 3 Xrotation Zrotation Yrotation
		JOINT chest
		{
			OFFSET 0.000000 8.438565 -0.680529 
			CHANNELS 3 Xrotation Zrotation Yrotation
			JOINT neck
			{
				OFFSET 0.000000 10.207942 -0.272212 
				CHANNELS 3 Xrotation Zrotation Yrotation
				JOINT head
				{
					OFFSET 0.000000 3.130431 0.000000 
					CHANNELS 3 Xrotation Zrotation Yrotation
					End Site
					{
						OFFSET 0.000000 3.130435 0.000000 
					}
				}
			}
			JOINT lCollar
			{
				OFFSET 3.470700 6.669187 -0.816635 
				CHANNELS 3 Yrotation Zrotation Xrotation
				JOINT lShldr
				{
					OFFSET 3.198488 0.000000 0.000000 
					CHANNELS 3 Zrotation Yrotation Xrotation
					JOINT lForeArm
					{
						OFFSET 10.139888 0.000000 0.000000 
						CHANNELS 3 Yrotation Zrotation Xrotation
						JOINT lHand
						{
							OFFSET 8.370511 0.000000 0.000000 
							CHANNELS 3 Zrotation Yrotation Xrotation
							End Site
							{
								OFFSET 4.083176 0.000000 0.000000 
							}
						}
					}
				}
			}
			JOINT rCollar
			{
				OFFSET -3.470700 6.669187 -0.816635 
				CHANNELS 3 Yrotation Zrotation Xrotation
				JOINT rShldr
				{
					OFFSET -3.198488 0.000000 0.000000 
					CHANNELS 3 Zrotation Yrotation Xrotation
					JOINT rForeArm
					{
						OFFSET -10.139888 0.000000 0.000000 
						CHANNELS 3 Yrotation Zrotation Xrotation
						JOINT rHand
						{
							OFFSET -8.370511 0.000000 0.000000 
							CHANNELS 3 Zrotation Yrotation Xrotation
							End Site
							{
								OFFSET -4.083176 0.000000 0.000000 
							}
						}
					}
				}
			}
		}
	}
	JOINT lThigh
	{
		OFFSET 5.308129 -1.633274 1.361059 
		CHANNELS 3 Xrotation Zrotation Yrotation
		JOINT lShin
		{
			OFFSET -2.041588 -20.007561 0.000000 
			CHANNELS 3 Xrotation Zrotation Yrotation
			JOINT lFoot
			{
				OFFSET 0.000000 -19.190928 -1.224953 
				CHANNELS 3 Xrotation Yrotation Zrotation
				End Site
				{
					OFFSET 0.000000 -2.449906 4.627600 
				}
			}
		}
	}
	JOINT rThigh
	{
		OFFSET -5.308129 -1.633274 1.361059 
		CHANNELS 3 Xrotation Zrotation Yrotation
		JOINT rShin
		{
			OFFSET 2.041588 -20.007561 0.000000 
			CHANNELS 3 Xrotation Zrotation Yrotation
			JOINT rFoot
			{
				OFFSET 0.000000 -19.190928 -1.224953 
				CHANNELS 3 Xrotation Yrotation Zrotation
				End Site
				{
					OFFSET 0.000000 -2.449906 4.627600 
				}
			}
		}
	}
}
MOTION
Frames: 13
Frame Time: 0.033333
-56.092239 26.642956 10.332074 -35.552181 -6.648899 -1.219753 0.000000 0.000000 0.000000 35.166492 3.794277 2.809511 19.268091 5.412756 9.545783 -8.062394 -1.695929 9.349666 -8.292563 5.395462 24.996656 -58.285679 -59.838741 2.122452 -30.789762 -6.116374 23.448978 16.813988 13.573963 -2.126345 4.393987 12.279010 24.990963 24.689154 45.466682 -0.641721 48.732830 2.906518 14.004867 -11.078817 -19.060341 -2.199439 -48.612579 21.513319 3.987324 98.947304 2.770464 -10.090689 -14.907372 -0.858986 6.297260 -45.519726 -21.216675 -4.835552 91.135406 -0.350635 10.575547 -7.936629 -0.069441 1.566283 
-56.087894 26.628069 10.326551 -35.678459 -6.824900 -1.111942 0.000000 0.000000 0.000000 35.273655 3.960027 2.829685 19.337566 5.500058 9.507844 -8.212746 -1.667209 9.310337 -8.399923 5.605219 24.995884 -58.882256 -59.805927 2.081378 -30.642241 -5.932212 24.270399 16.975628 13.097102 -2.182705 4.297141 12.299543 24.996981 24.648226 45.531868 -0.686769 48.871166 2.877357 14.158203 -10.793224 -19.106882 -2.232187 -48.657146 21.579523 3.818280 98.992737 2.791394 -10.164948 -14.867244 -0.884394 6.337925 -45.318897 -21.179968 -5.032258 91.144684 -0.301743 10.642979 -7.955706 -0.047893 1.544113 
-56.096527 26.632097 10.332151 -35.619080 -6.805349 -1.121637 0.000000 0.000000 0.000000 35.224155 3.960060 2.819268 19.239378 5.519948 9.468969 -7.959849 -1.676939 9.291099 -8.334422 5.765883 24.998655 -58.922962 -59.840782 2.288139 -30.828482 -5.996476 23.701954 16.675848 13.318724 -2.177589 4.363441 12.297421 24.994032 24.502953 45.545776 -0.612928 48.862423 2.887585 13.869746 -10.585535 -19.112484 -2.271248 -48.671608 21.582054 3.884667 99.038574 2.782576 -10.261030 -14.930150 -0.882874 6.416657 -45.383152 -21.167755 -4.987535 91.239189 -0.292943 10.744660 -8.037328 -0.089059 1.504032 
-56.095562 26.637796 10.332988 -35.601688 -6.815158 -1.102244 0.000000 0.000000 0.000000 35.197262 4.008829 2.819950 19.326708 5.539841 9.430096 -8.151469 -1.878958 9.360320 -8.335916 5.700541 24.994223 -58.660191 -59.877224 2.418667 -30.594309 -6.181130 23.508123 17.218714 13.389860 -2.115003 4.434589 12.213024 24.991701 24.011944 45.594975 -0.224825 48.703224 3.130605 13.098818 -11.013760 -19.134342 -2.205045 -48.686893 21.608955 3.841142 98.980316 2.780996 -10.251789 -14.882425 -0.873286 6.388073 -45.357956 -21.170271 -5.011120 91.200104 -0.312509 10.722878 -8.016998 -0.106463 1.560309 
-56.102718 26.650097 10.348228 -35.571415 -6.688162 -1.131326 0.000000 0.000000 0.000000 35.229424 3.891350 2.946588 19.027884 5.705854 9.295032 -7.518263 -2.177477 9.391285 -8.616463 6.241408 24.990246 -59.816872 -60.174446 2.571802 -30.394987 -5.864646 24.127674 16.694658 13.201851 -2.190289 3.985872 12.229813 24.993252 22.253168 46.041157 0.293323 48.375992 3.790391 11.039788 -12.379662 -18.658297 -2.054946 -48.621998 21.523041 3.962733 98.948265 2.760999 -10.073026 -14.932768 -0.851444 6.345541 -45.403728 -21.256380 -4.953332 91.191223 -0.341942 10.664977 -8.036234 -0.096415 1.554308 
-56.106705 26.655262 10.338915 -35.424934 -6.688162 -1.131326 0.000000 0.000000 0.000000 35.051723 3.911486 2.760810 19.165068 5.530831 9.390278 -7.640753 -1.811763 9.311210 -8.307066 5.779532 24.990543 -59.092243 -59.873344 2.469898 -30.637859 -6.004351 23.908014 16.581583 13.417754 -2.167818 4.211850 12.345197 24.996635 22.327871 45.935684 0.607722 48.250538 3.838512 11.211309 -12.650215 -18.943521 -1.985007 -48.767822 21.503244 3.882114 98.942490 2.752032 -10.245503 -14.877262 -0.879318 6.329745 -45.555279 -21.259041 -4.962789 91.126022 -0.340931 10.574912 -7.976113 -0.069753 1.555595 
-56.101944 26.636486 10.351013 -35.498322 -6.785933 -1.071996 0.000000 0.000000 0.000000 35.118656 3.999076 2.819949 19.059494 5.695580 9.333896 -7.457224 -2.042533 9.400342 -8.524253 6.132328 24.995592 -59.438232 -59.956383 2.533809 -30.474483 -5.953604 23.984018 16.678637 13.151783 -2.200374 4.032216 12.527743 24.993425 23.526928 45.814999 -0.260256 48.578514 3.267227 12.802387 -11.226954 -18.895977 -2.198863 -48.798061 21.552366 3.820368 99.049286 2.771264 -10.245774 -14.940540 -0.874028 6.399467 -45.462963 -21.188215 -4.979694 91.269363 -0.312558 10.698973 -8.113581 -0.112109 1.611789 
-56.101479 26.637434 10.348534 -35.590363 -6.776059 -1.121636 0.000000 0.000000 0.000000 35.242706 3.959619 2.946592 18.965212 5.812188 9.277574 -7.228066 -2.302468 9.431452 -8.700456 6.374883 24.995638 -59.649700 -60.126728 2.616331 -30.402576 -5.954097 23.812439 17.084391 13.085475 -2.173475 3.888971 12.653187 24.990925 23.632086 45.789337 -0.749886 48.704895 3.078316 13.571398 -10.906222 -18.682884 -2.251709 -48.658489 21.580261 3.914619 99.005890 2.770585 -10.092194 -14.930336 -0.864206 6.393682 -45.388470 -21.161203 -4.962567 91.248245 -0.302592 10.754821 -8.065809 -0.090236 1.535830 
-56.108593 26.654194 10.340310 -35.687054 -6.766272 -1.131332 0.000000 0.000000 0.000000 35.276852 3.969646 2.868655 19.230545 5.636972 9.382470 -7.598447 -2.023606 9.341788 -8.452059 5.906237 24.993454 -59.265003 -59.905472 2.408493 -30.490433 -5.906521 24.547386 16.975855 13.242499 -2.155961 4.123897 12.772478 24.994066 24.948038 45.388908 -1.231073 49.111012 2.464372 15.154745 -9.773669 -18.913778 -2.399009 -48.537724 21.617376 3.886852 98.959145 2.780706 -10.298717 -14.881496 -0.845390 6.370039 -45.267330 -21.158764 -4.978221 91.144951 -0.321303 10.614368 -8.015100 -0.062837 1.548236 
-56.103191 26.648006 10.347427 -35.682880 -6.688048 -1.180959 0.000000 0.000000 0.000000 35.220100 3.960258 2.760814 19.371424 5.375459 9.466172 -7.989599 -1.590992 9.114835 -7.998325 5.436961 24.990856 -58.477375 -59.998882 2.413851 -30.451672 -6.221079 23.768761 17.206770 13.034231 -2.165121 4.266585 12.720551 24.991745 24.619663 45.361164 -0.832377 49.073544 2.563191 14.879498 -10.428830 -19.303679 -2.262399 -48.504765 21.542576 3.971734 98.955070 2.760489 -10.159213 -14.914905 -0.872800 6.344783 -45.348064 -21.130907 -4.833805 91.203026 -0.350441 10.599229 -8.043183 -0.073425 1.607862 
-56.100227 26.637896 10.341804 -35.625229 -6.697834 -1.170123 0.000000 0.000000 0.000000 35.233437 3.950306 2.819268 19.116140 5.501151 9.438870 -7.566078 -1.677451 9.183438 -8.232075 5.825088 24.996000 -59.324665 -60.057735 2.432996 -30.426208 -5.958586 24.243212 16.944605 13.022038 -2.182971 4.253157 12.513157 24.996469 23.949848 45.542534 -0.564907 49.020592 2.858278 13.667466 -10.563890 -19.304838 -2.246395 -48.587944 21.559353 3.941611 98.990982 2.751968 -10.256329 -14.933623 -0.872025 6.356470 -45.416183 -21.150518 -4.836646 91.230164 -0.361385 10.648529 -8.043583 -0.093955 1.630583 
-56.107861 26.644983 10.334256 -35.685699 -6.776013 -1.141030 0.000000 0.000000 0.000000 35.252220 4.018783 2.760818 19.239063 5.424237 9.428211 -7.640818 -1.494773 9.065503 -8.008733 5.550652 24.997467 -58.846268 -60.018539 2.268298 -30.445534 -5.988340 24.442163 16.920586 13.070593 -2.183752 4.360339 12.657173 24.989695 23.845642 45.448452 -0.586552 48.947422 2.949804 13.399993 -10.618407 -18.976011 -2.268635 -48.552589 21.581148 3.881953 99.003128 2.781708 -10.157243 -14.945891 -0.866536 6.315718 -45.317230 -21.149693 -4.955858 91.165367 -0.340940 10.568016 -8.004677 -0.077641 1.595008 
-56.106823 26.633471 10.334661 -35.707081 -6.766084 -1.210064 0.000000 0.000000 0.000000 35.348621 3.930361 2.946591 19.013462 5.617544 9.391231 -7.314581 -1.754622 9.174257 -8.425867 6.059415 24.994497 -59.501549 -60.175850 2.334563 -30.422882 -5.827908 24.457220 16.745142 13.194413 -2.182094 3.966142 12.742154 24.992205 23.531410 45.651573 -0.696106 48.905838 2.990872 13.536698 -11.179229 -18.683811 -2.213694 -48.532326 21.639135 3.967669 99.002441 2.771832 -10.187143 -14.905124 -0.873234 6.344485 -45.356934 -21.101135 -4.871796 91.220192 -0.332105 10.686032 -8.005452 -0.094023 1.598181 
